# xmcd
#
# Track frame offsets:
#	150
#	10954
#	24588
#	36150
#	44867
#	51653
#	61715
#	74237
#	84280
#	99656
#	122817
#	138517
#	153525
#	165215
#	176560
#	187606
#	202021
#
# Disc length: 2821 seconds
#
# Revision: 1
# Processed by: cddbd v1.5.2PL0 Copyright (c) Steve Scherf et al.
# Submitted via: audiograbber 1.83.01
#
DISCID=ef0b0311
DTITLE=Shavonne Frazier - Californa Fog
DYEAR=1998
DGENRE=
TTITLE0=Daddy Sang Bass
TTITLE1=Time In A Bottle
TTITLE2=Don't It Make My Brown Eyes Blue
TTITLE3=Crazy
TTITLE4=Daydream Believer
TTITLE5=Somewhere Over The Rainbow
TTITLE6=Georgia On My Mind
TTITLE7=I'm Gonna Sit Right Down And Write Myself A Letter
TTITLE8=Like A Sad Song
TTITLE9=Annie's Song
TTITLE10=Your Cheatin' Heart
TTITLE11=Perhaps Love
TTITLE12=Summertime
TTITLE13=Leaving On A Jet Plane
TTITLE14=Early Morning Rain
TTITLE15=Dimming Of The Day
TTITLE16=Take Me Home, Country Roads
EXTD=
EXTT0=
EXTT1=
EXTT2=
EXTT3=
EXTT4=
EXTT5=
EXTT6=
EXTT7=
EXTT8=
EXTT9=
EXTT10=
EXTT11=
EXTT12=
EXTT13=
EXTT14=
EXTT15=
EXTT16=
PLAYORDER=
